<mxfile host="app.diagrams.net" agent="Mozilla/5.0 (Windows NT 10.0; Win64; x64) AppleWebKit/537.36 (KHTML, like Gecko) Chrome/131.0.0.0 Safari/537.36 Edg/131.0.0.0" version="25.0.3">
  <diagram name="第 1 页" id="AlQq-cYbtnTaWgmMAoLO">
    <mxGraphModel dx="1267" dy="553" grid="1" gridSize="10" guides="1" tooltips="1" connect="1" arrows="1" fold="1" page="1" pageScale="1" pageWidth="1169" pageHeight="827" math="0" shadow="0">
      <root>
        <mxCell id="0" />
        <mxCell id="1" parent="0" />
        <mxCell id="BgXEFDxsCxzQprDhH-1U-5" style="edgeStyle=orthogonalEdgeStyle;rounded=0;orthogonalLoop=1;jettySize=auto;html=1;entryX=0;entryY=0.5;entryDx=0;entryDy=0;entryPerimeter=0;" parent="1" source="BgXEFDxsCxzQprDhH-1U-2" target="BgXEFDxsCxzQprDhH-1U-3" edge="1">
          <mxGeometry relative="1" as="geometry">
            <mxPoint x="204" y="194" as="targetPoint" />
          </mxGeometry>
        </mxCell>
        <mxCell id="BgXEFDxsCxzQprDhH-1U-2" value="&lt;font style=&quot;font-size: 24px;&quot;&gt;开始&lt;/font&gt;&lt;div&gt;&lt;font style=&quot;font-size: 24px;&quot;&gt;main&lt;/font&gt;&lt;/div&gt;" style="strokeWidth=2;html=1;shape=mxgraph.flowchart.start_2;whiteSpace=wrap;" parent="1" vertex="1">
          <mxGeometry x="34" y="144" width="100" height="100" as="geometry" />
        </mxCell>
        <mxCell id="BgXEFDxsCxzQprDhH-1U-7" style="edgeStyle=orthogonalEdgeStyle;rounded=0;orthogonalLoop=1;jettySize=auto;html=1;exitX=1;exitY=0.5;exitDx=0;exitDy=0;exitPerimeter=0;" parent="1" source="BgXEFDxsCxzQprDhH-1U-3" target="BgXEFDxsCxzQprDhH-1U-6" edge="1">
          <mxGeometry relative="1" as="geometry" />
        </mxCell>
        <mxCell id="BgXEFDxsCxzQprDhH-1U-3" value="&lt;font style=&quot;font-size: 24px;&quot;&gt;主循环&lt;/font&gt;&lt;div&gt;&lt;font style=&quot;font-size: 24px;&quot;&gt;while TRUE&lt;/font&gt;&lt;/div&gt;" style="strokeWidth=2;html=1;shape=mxgraph.flowchart.terminator;whiteSpace=wrap;" parent="1" vertex="1">
          <mxGeometry x="164" y="147" width="150" height="92.5" as="geometry" />
        </mxCell>
        <mxCell id="BgXEFDxsCxzQprDhH-1U-11" style="edgeStyle=orthogonalEdgeStyle;rounded=0;orthogonalLoop=1;jettySize=auto;html=1;exitX=0.5;exitY=1;exitDx=0;exitDy=0;exitPerimeter=0;entryX=0.5;entryY=0;entryDx=0;entryDy=0;" parent="1" source="BgXEFDxsCxzQprDhH-1U-6" target="BgXEFDxsCxzQprDhH-1U-10" edge="1">
          <mxGeometry relative="1" as="geometry" />
        </mxCell>
        <mxCell id="BgXEFDxsCxzQprDhH-1U-12" value="&lt;font style=&quot;font-size: 24px;&quot;&gt;回车&lt;/font&gt;" style="edgeLabel;html=1;align=center;verticalAlign=middle;resizable=0;points=[];" parent="BgXEFDxsCxzQprDhH-1U-11" vertex="1" connectable="0">
          <mxGeometry x="-0.2292" y="-6" relative="1" as="geometry">
            <mxPoint x="39" y="1" as="offset" />
          </mxGeometry>
        </mxCell>
        <mxCell id="BgXEFDxsCxzQprDhH-1U-14" style="edgeStyle=orthogonalEdgeStyle;rounded=0;orthogonalLoop=1;jettySize=auto;html=1;exitX=1;exitY=0.5;exitDx=0;exitDy=0;exitPerimeter=0;entryX=0;entryY=0.5;entryDx=0;entryDy=0;" parent="1" source="BgXEFDxsCxzQprDhH-1U-6" target="BgXEFDxsCxzQprDhH-1U-13" edge="1">
          <mxGeometry relative="1" as="geometry" />
        </mxCell>
        <mxCell id="BgXEFDxsCxzQprDhH-1U-16" value="&lt;div&gt;&lt;font style=&quot;font-size: 24px;&quot;&gt;路径&lt;/font&gt;&lt;/div&gt;" style="edgeLabel;html=1;align=center;verticalAlign=middle;resizable=0;points=[];" parent="BgXEFDxsCxzQprDhH-1U-14" vertex="1" connectable="0">
          <mxGeometry x="-0.1356" y="4" relative="1" as="geometry">
            <mxPoint y="-20" as="offset" />
          </mxGeometry>
        </mxCell>
        <mxCell id="BgXEFDxsCxzQprDhH-1U-6" value="&lt;font style=&quot;font-size: 24px;&quot;&gt;打开&lt;/font&gt;&lt;div&gt;&lt;font style=&quot;font-size: 24px;&quot;&gt;文件&lt;/font&gt;&lt;/div&gt;" style="strokeWidth=2;html=1;shape=mxgraph.flowchart.decision;whiteSpace=wrap;" parent="1" vertex="1">
          <mxGeometry x="354" y="140.5" width="106" height="107" as="geometry" />
        </mxCell>
        <mxCell id="BgXEFDxsCxzQprDhH-1U-22" style="edgeStyle=orthogonalEdgeStyle;rounded=0;orthogonalLoop=1;jettySize=auto;html=1;exitX=1;exitY=0.5;exitDx=0;exitDy=0;" parent="1" source="BgXEFDxsCxzQprDhH-1U-10" target="BgXEFDxsCxzQprDhH-1U-19" edge="1">
          <mxGeometry relative="1" as="geometry" />
        </mxCell>
        <mxCell id="BgXEFDxsCxzQprDhH-1U-10" value="&lt;font style=&quot;font-size: 24px;&quot;&gt;新建&lt;/font&gt;&lt;div&gt;&lt;font style=&quot;font-size: 24px;&quot;&gt;文件&lt;/font&gt;&lt;/div&gt;" style="rounded=1;whiteSpace=wrap;html=1;absoluteArcSize=1;arcSize=14;strokeWidth=2;" parent="1" vertex="1">
          <mxGeometry x="357" y="299.99999999999994" width="100" height="100" as="geometry" />
        </mxCell>
        <mxCell id="BgXEFDxsCxzQprDhH-1U-13" value="&lt;font style=&quot;font-size: 24px;&quot;&gt;读取&lt;/font&gt;&lt;div&gt;&lt;font style=&quot;font-size: 24px;&quot;&gt;文件&lt;/font&gt;&lt;/div&gt;" style="rounded=1;whiteSpace=wrap;html=1;absoluteArcSize=1;arcSize=14;strokeWidth=2;" parent="1" vertex="1">
          <mxGeometry x="524" y="144" width="100" height="100" as="geometry" />
        </mxCell>
        <mxCell id="BgXEFDxsCxzQprDhH-1U-17" style="edgeStyle=orthogonalEdgeStyle;rounded=0;orthogonalLoop=1;jettySize=auto;html=1;exitX=0.5;exitY=0;exitDx=0;exitDy=0;entryX=0.5;entryY=0;entryDx=0;entryDy=0;entryPerimeter=0;" parent="1" source="BgXEFDxsCxzQprDhH-1U-13" target="BgXEFDxsCxzQprDhH-1U-6" edge="1">
          <mxGeometry relative="1" as="geometry">
            <Array as="points">
              <mxPoint x="574" y="70" />
              <mxPoint x="407" y="70" />
            </Array>
          </mxGeometry>
        </mxCell>
        <mxCell id="BgXEFDxsCxzQprDhH-1U-18" value="&lt;font style=&quot;font-size: 24px;&quot;&gt;路径非法&lt;/font&gt;" style="edgeLabel;html=1;align=center;verticalAlign=middle;resizable=0;points=[];" parent="BgXEFDxsCxzQprDhH-1U-17" vertex="1" connectable="0">
          <mxGeometry x="0.1387" y="-5" relative="1" as="geometry">
            <mxPoint x="21" y="25" as="offset" />
          </mxGeometry>
        </mxCell>
        <mxCell id="BgXEFDxsCxzQprDhH-1U-19" value="&lt;font style=&quot;font-size: 24px;&quot;&gt;初始化&lt;/font&gt;&lt;div&gt;&lt;font style=&quot;font-size: 24px;&quot;&gt;表格&lt;/font&gt;&lt;/div&gt;" style="rounded=1;whiteSpace=wrap;html=1;absoluteArcSize=1;arcSize=14;strokeWidth=2;" parent="1" vertex="1">
          <mxGeometry x="524" y="299.99999999999994" width="100" height="100" as="geometry" />
        </mxCell>
        <mxCell id="BgXEFDxsCxzQprDhH-1U-25" value="&lt;font style=&quot;font-size: 24px;&quot;&gt;命令模式&lt;/font&gt;&lt;div&gt;&lt;font style=&quot;font-size: 18px;&quot;&gt;while flag&lt;/font&gt;&lt;/div&gt;" style="strokeWidth=2;html=1;shape=mxgraph.flowchart.decision;whiteSpace=wrap;" parent="1" vertex="1">
          <mxGeometry x="684" y="205" width="130" height="130" as="geometry" />
        </mxCell>
        <mxCell id="BgXEFDxsCxzQprDhH-1U-27" style="edgeStyle=orthogonalEdgeStyle;rounded=0;orthogonalLoop=1;jettySize=auto;html=1;exitX=1;exitY=0.5;exitDx=0;exitDy=0;entryX=0;entryY=0.5;entryDx=0;entryDy=0;entryPerimeter=0;" parent="1" source="BgXEFDxsCxzQprDhH-1U-13" target="BgXEFDxsCxzQprDhH-1U-25" edge="1">
          <mxGeometry relative="1" as="geometry">
            <mxPoint x="744" y="265" as="targetPoint" />
            <Array as="points">
              <mxPoint x="654" y="194" />
              <mxPoint x="654" y="270" />
            </Array>
          </mxGeometry>
        </mxCell>
        <mxCell id="BgXEFDxsCxzQprDhH-1U-28" style="edgeStyle=orthogonalEdgeStyle;rounded=0;orthogonalLoop=1;jettySize=auto;html=1;exitX=1;exitY=0.5;exitDx=0;exitDy=0;entryX=0;entryY=0.5;entryDx=0;entryDy=0;entryPerimeter=0;" parent="1" source="BgXEFDxsCxzQprDhH-1U-19" target="BgXEFDxsCxzQprDhH-1U-25" edge="1">
          <mxGeometry relative="1" as="geometry">
            <mxPoint x="744" y="265" as="targetPoint" />
            <Array as="points">
              <mxPoint x="654" y="349.99999999999994" />
              <mxPoint x="654" y="270" />
            </Array>
          </mxGeometry>
        </mxCell>
        <mxCell id="BgXEFDxsCxzQprDhH-1U-29" value="&lt;div&gt;&lt;font style=&quot;font-size: 24px;&quot;&gt;文件&lt;/font&gt;&lt;/div&gt;&lt;div&gt;&lt;font style=&quot;font-size: 24px;&quot;&gt;操作&lt;/font&gt;&lt;/div&gt;" style="rounded=1;whiteSpace=wrap;html=1;absoluteArcSize=1;arcSize=14;strokeWidth=2;" parent="1" vertex="1">
          <mxGeometry x="869" y="380" width="100" height="100" as="geometry" />
        </mxCell>
        <mxCell id="BgXEFDxsCxzQprDhH-1U-36" style="edgeStyle=orthogonalEdgeStyle;rounded=0;orthogonalLoop=1;jettySize=auto;html=1;exitX=0.5;exitY=1;exitDx=0;exitDy=0;exitPerimeter=0;entryX=0.5;entryY=0;entryDx=0;entryDy=0;" parent="1" source="BgXEFDxsCxzQprDhH-1U-34" target="BgXEFDxsCxzQprDhH-1U-29" edge="1">
          <mxGeometry relative="1" as="geometry" />
        </mxCell>
        <mxCell id="BgXEFDxsCxzQprDhH-1U-37" value="&lt;font style=&quot;font-size: 24px;&quot;&gt;1~4&lt;/font&gt;" style="edgeLabel;html=1;align=center;verticalAlign=middle;resizable=0;points=[];" parent="BgXEFDxsCxzQprDhH-1U-36" vertex="1" connectable="0">
          <mxGeometry x="0.1667" y="3" relative="1" as="geometry">
            <mxPoint x="28" y="-11" as="offset" />
          </mxGeometry>
        </mxCell>
        <mxCell id="BgXEFDxsCxzQprDhH-1U-68" style="edgeStyle=orthogonalEdgeStyle;rounded=0;orthogonalLoop=1;jettySize=auto;html=1;exitX=1;exitY=0.5;exitDx=0;exitDy=0;exitPerimeter=0;entryX=0;entryY=0.5;entryDx=0;entryDy=0;" parent="1" source="BgXEFDxsCxzQprDhH-1U-34" target="BgXEFDxsCxzQprDhH-1U-42" edge="1">
          <mxGeometry relative="1" as="geometry" />
        </mxCell>
        <mxCell id="BgXEFDxsCxzQprDhH-1U-69" value="&lt;font style=&quot;font-size: 24px;&quot;&gt;-1&lt;/font&gt;" style="edgeLabel;html=1;align=center;verticalAlign=middle;resizable=0;points=[];" parent="BgXEFDxsCxzQprDhH-1U-68" vertex="1" connectable="0">
          <mxGeometry x="0.0293" y="2" relative="1" as="geometry">
            <mxPoint x="-10" y="-24" as="offset" />
          </mxGeometry>
        </mxCell>
        <mxCell id="BgXEFDxsCxzQprDhH-1U-34" value="&lt;font style=&quot;font-size: 24px;&quot;&gt;com&lt;/font&gt;&lt;span style=&quot;font-size: 24px; background-color: initial;&quot;&gt;m&lt;/span&gt;&lt;div&gt;&lt;span style=&quot;font-size: 24px; background-color: initial;&quot;&gt;and&lt;/span&gt;&lt;/div&gt;" style="strokeWidth=2;html=1;shape=mxgraph.flowchart.decision;whiteSpace=wrap;" parent="1" vertex="1">
          <mxGeometry x="854" y="205" width="130" height="130" as="geometry" />
        </mxCell>
        <mxCell id="BgXEFDxsCxzQprDhH-1U-35" style="edgeStyle=orthogonalEdgeStyle;rounded=0;orthogonalLoop=1;jettySize=auto;html=1;exitX=1;exitY=0.5;exitDx=0;exitDy=0;exitPerimeter=0;entryX=0;entryY=0.5;entryDx=0;entryDy=0;entryPerimeter=0;" parent="1" source="BgXEFDxsCxzQprDhH-1U-25" target="BgXEFDxsCxzQprDhH-1U-34" edge="1">
          <mxGeometry relative="1" as="geometry" />
        </mxCell>
        <mxCell id="BgXEFDxsCxzQprDhH-1U-39" style="edgeStyle=orthogonalEdgeStyle;rounded=0;orthogonalLoop=1;jettySize=auto;html=1;exitX=0.5;exitY=0;exitDx=0;exitDy=0;exitPerimeter=0;entryX=0.5;entryY=0;entryDx=0;entryDy=0;entryPerimeter=0;" parent="1" source="BgXEFDxsCxzQprDhH-1U-34" target="BgXEFDxsCxzQprDhH-1U-25" edge="1">
          <mxGeometry relative="1" as="geometry">
            <Array as="points">
              <mxPoint x="919" y="150" />
              <mxPoint x="749" y="150" />
            </Array>
          </mxGeometry>
        </mxCell>
        <mxCell id="BgXEFDxsCxzQprDhH-1U-40" value="&lt;span style=&quot;font-size: 24px;&quot;&gt;命令不存在&lt;/span&gt;" style="edgeLabel;html=1;align=center;verticalAlign=middle;resizable=0;points=[];" parent="BgXEFDxsCxzQprDhH-1U-39" vertex="1" connectable="0">
          <mxGeometry x="-0.0429" relative="1" as="geometry">
            <mxPoint x="-6" y="30" as="offset" />
          </mxGeometry>
        </mxCell>
        <mxCell id="BgXEFDxsCxzQprDhH-1U-48" style="edgeStyle=orthogonalEdgeStyle;rounded=0;orthogonalLoop=1;jettySize=auto;html=1;exitX=0.5;exitY=1;exitDx=0;exitDy=0;" parent="1" source="BgXEFDxsCxzQprDhH-1U-42" target="BgXEFDxsCxzQprDhH-1U-47" edge="1">
          <mxGeometry relative="1" as="geometry" />
        </mxCell>
        <mxCell id="BgXEFDxsCxzQprDhH-1U-42" value="&lt;font style=&quot;font-size: 24px;&quot;&gt;flag=&lt;/font&gt;&lt;div&gt;&lt;font style=&quot;font-size: 24px;&quot;&gt;FALSE&lt;/font&gt;&lt;/div&gt;" style="rounded=1;whiteSpace=wrap;html=1;absoluteArcSize=1;arcSize=14;strokeWidth=2;" parent="1" vertex="1">
          <mxGeometry x="1034" y="219.99999999999994" width="100" height="100" as="geometry" />
        </mxCell>
        <mxCell id="BgXEFDxsCxzQprDhH-1U-50" style="edgeStyle=orthogonalEdgeStyle;rounded=0;orthogonalLoop=1;jettySize=auto;html=1;exitX=0;exitY=0.5;exitDx=0;exitDy=0;exitPerimeter=0;" parent="1" source="BgXEFDxsCxzQprDhH-1U-47" target="BgXEFDxsCxzQprDhH-1U-49" edge="1">
          <mxGeometry relative="1" as="geometry" />
        </mxCell>
        <mxCell id="BgXEFDxsCxzQprDhH-1U-51" value="&lt;font style=&quot;font-size: 24px;&quot;&gt;Y&lt;/font&gt;" style="edgeLabel;html=1;align=center;verticalAlign=middle;resizable=0;points=[];" parent="BgXEFDxsCxzQprDhH-1U-50" vertex="1" connectable="0">
          <mxGeometry x="0.0173" y="-3" relative="1" as="geometry">
            <mxPoint x="4" y="-22" as="offset" />
          </mxGeometry>
        </mxCell>
        <mxCell id="BgXEFDxsCxzQprDhH-1U-58" style="edgeStyle=orthogonalEdgeStyle;rounded=0;orthogonalLoop=1;jettySize=auto;html=1;exitX=0.5;exitY=1;exitDx=0;exitDy=0;exitPerimeter=0;entryX=0.5;entryY=1;entryDx=0;entryDy=0;" parent="1" source="BgXEFDxsCxzQprDhH-1U-47" target="BgXEFDxsCxzQprDhH-1U-55" edge="1">
          <mxGeometry relative="1" as="geometry">
            <Array as="points">
              <mxPoint x="1084" y="700" />
              <mxPoint x="739" y="700" />
            </Array>
          </mxGeometry>
        </mxCell>
        <mxCell id="BgXEFDxsCxzQprDhH-1U-59" value="&lt;font style=&quot;font-size: 24px;&quot;&gt;N&lt;/font&gt;" style="edgeLabel;html=1;align=center;verticalAlign=middle;resizable=0;points=[];" parent="BgXEFDxsCxzQprDhH-1U-58" vertex="1" connectable="0">
          <mxGeometry x="-0.0636" relative="1" as="geometry">
            <mxPoint x="-4" y="-20" as="offset" />
          </mxGeometry>
        </mxCell>
        <mxCell id="BgXEFDxsCxzQprDhH-1U-47" value="&lt;font style=&quot;font-size: 24px;&quot;&gt;是否&lt;/font&gt;&lt;div&gt;&lt;font style=&quot;font-size: 24px;&quot;&gt;保存&lt;/font&gt;&lt;/div&gt;" style="strokeWidth=2;html=1;shape=mxgraph.flowchart.decision;whiteSpace=wrap;" parent="1" vertex="1">
          <mxGeometry x="1019" y="530" width="130" height="130" as="geometry" />
        </mxCell>
        <mxCell id="BgXEFDxsCxzQprDhH-1U-56" style="edgeStyle=orthogonalEdgeStyle;rounded=0;orthogonalLoop=1;jettySize=auto;html=1;exitX=0;exitY=0.5;exitDx=0;exitDy=0;" parent="1" source="BgXEFDxsCxzQprDhH-1U-49" target="BgXEFDxsCxzQprDhH-1U-55" edge="1">
          <mxGeometry relative="1" as="geometry" />
        </mxCell>
        <mxCell id="BgXEFDxsCxzQprDhH-1U-49" value="&lt;font style=&quot;font-size: 24px;&quot;&gt;保存&lt;/font&gt;&lt;div&gt;&lt;font style=&quot;font-size: 24px;&quot;&gt;文件&lt;/font&gt;&lt;/div&gt;" style="rounded=1;whiteSpace=wrap;html=1;absoluteArcSize=1;arcSize=14;strokeWidth=2;" parent="1" vertex="1">
          <mxGeometry x="864" y="545" width="100" height="100" as="geometry" />
        </mxCell>
        <mxCell id="BgXEFDxsCxzQprDhH-1U-60" style="edgeStyle=orthogonalEdgeStyle;rounded=0;orthogonalLoop=1;jettySize=auto;html=1;exitX=0.5;exitY=0;exitDx=0;exitDy=0;exitPerimeter=0;" parent="1" source="BgXEFDxsCxzQprDhH-1U-52" target="BgXEFDxsCxzQprDhH-1U-3" edge="1">
          <mxGeometry relative="1" as="geometry">
            <Array as="points">
              <mxPoint x="239" y="490" />
              <mxPoint x="239" y="490" />
            </Array>
          </mxGeometry>
        </mxCell>
        <mxCell id="BgXEFDxsCxzQprDhH-1U-61" value="&lt;font style=&quot;font-size: 24px;&quot;&gt;N&lt;/font&gt;" style="edgeLabel;html=1;align=center;verticalAlign=middle;resizable=0;points=[];" parent="BgXEFDxsCxzQprDhH-1U-60" vertex="1" connectable="0">
          <mxGeometry x="-0.7743" y="1" relative="1" as="geometry">
            <mxPoint x="22" y="-117" as="offset" />
          </mxGeometry>
        </mxCell>
        <mxCell id="BgXEFDxsCxzQprDhH-1U-64" style="edgeStyle=orthogonalEdgeStyle;rounded=0;orthogonalLoop=1;jettySize=auto;html=1;exitX=0;exitY=0.5;exitDx=0;exitDy=0;exitPerimeter=0;" parent="1" source="BgXEFDxsCxzQprDhH-1U-52" target="BgXEFDxsCxzQprDhH-1U-63" edge="1">
          <mxGeometry relative="1" as="geometry" />
        </mxCell>
        <mxCell id="BgXEFDxsCxzQprDhH-1U-65" value="&lt;font style=&quot;font-size: 24px;&quot;&gt;Y&lt;/font&gt;" style="edgeLabel;html=1;align=center;verticalAlign=middle;resizable=0;points=[];" parent="BgXEFDxsCxzQprDhH-1U-64" vertex="1" connectable="0">
          <mxGeometry x="-0.1936" y="-4" relative="1" as="geometry">
            <mxPoint x="2" y="-21" as="offset" />
          </mxGeometry>
        </mxCell>
        <mxCell id="BgXEFDxsCxzQprDhH-1U-52" value="&lt;font style=&quot;font-size: 24px;&quot;&gt;是否&lt;/font&gt;&lt;div&gt;&lt;font style=&quot;font-size: 24px;&quot;&gt;退出&lt;/font&gt;&lt;/div&gt;" style="strokeWidth=2;html=1;shape=mxgraph.flowchart.decision;whiteSpace=wrap;" parent="1" vertex="1">
          <mxGeometry x="174" y="530" width="130" height="130" as="geometry" />
        </mxCell>
        <mxCell id="BgXEFDxsCxzQprDhH-1U-57" style="edgeStyle=orthogonalEdgeStyle;rounded=0;orthogonalLoop=1;jettySize=auto;html=1;exitX=0;exitY=0.5;exitDx=0;exitDy=0;" parent="1" source="BgXEFDxsCxzQprDhH-1U-55" target="BgXEFDxsCxzQprDhH-1U-52" edge="1">
          <mxGeometry relative="1" as="geometry" />
        </mxCell>
        <mxCell id="BgXEFDxsCxzQprDhH-1U-55" value="&lt;font style=&quot;font-size: 24px;&quot;&gt;关闭&lt;/font&gt;&lt;div&gt;&lt;font style=&quot;font-size: 24px;&quot;&gt;文件&lt;/font&gt;&lt;/div&gt;" style="rounded=1;whiteSpace=wrap;html=1;absoluteArcSize=1;arcSize=14;strokeWidth=2;" parent="1" vertex="1">
          <mxGeometry x="689" y="545" width="100" height="100" as="geometry" />
        </mxCell>
        <mxCell id="BgXEFDxsCxzQprDhH-1U-63" value="&lt;font style=&quot;font-size: 24px;&quot;&gt;退出return 0&lt;/font&gt;" style="strokeWidth=2;html=1;shape=mxgraph.flowchart.start_2;whiteSpace=wrap;" parent="1" vertex="1">
          <mxGeometry x="34" y="545" width="100" height="100" as="geometry" />
        </mxCell>
        <mxCell id="BgXEFDxsCxzQprDhH-1U-67" style="edgeStyle=orthogonalEdgeStyle;rounded=0;orthogonalLoop=1;jettySize=auto;html=1;exitX=0;exitY=0.5;exitDx=0;exitDy=0;entryX=0.496;entryY=0.951;entryDx=0;entryDy=0;entryPerimeter=0;" parent="1" source="BgXEFDxsCxzQprDhH-1U-29" target="BgXEFDxsCxzQprDhH-1U-25" edge="1">
          <mxGeometry relative="1" as="geometry" />
        </mxCell>
        <mxCell id="BgXEFDxsCxzQprDhH-1U-70" value="&lt;font style=&quot;font-size: 24px;&quot;&gt;TRUE=1,FALSE=0&lt;/font&gt;" style="shape=parallelogram;html=1;strokeWidth=2;perimeter=parallelogramPerimeter;whiteSpace=wrap;rounded=1;arcSize=12;size=0.057692307692307696;" parent="1" vertex="1">
          <mxGeometry x="680" y="40" width="390" height="60" as="geometry" />
        </mxCell>
      </root>
    </mxGraphModel>
  </diagram>
</mxfile>
